<?xml version="1.0" encoding="utf-8"?>
<!-- Generator: Adobe Illustrator 23.0.1, SVG Export Plug-In . SVG Version: 6.00 Build 0)  -->
<svg version="1.1" id="Layer_1" xmlns="http://www.w3.org/2000/svg" xmlns:xlink="http://www.w3.org/1999/xlink" x="0px" y="0px"
	 viewBox="0 0 512 512" style="enable-background:new 0 0 512 512;" xml:space="preserve">
<style type="text/css">
	.st0{fill:#FFFFFF;}
</style>
<g>
	<g>
		<g>
			<path class="st0" d="M358.4,330.5c0,23.5,19.1,42.7,42.7,42.7c23.5,0,42.7-19.1,42.7-42.7c0-23.5-19.1-42.7-42.7-42.7
				C377.5,287.8,358.4,307,358.4,330.5z M375.5,330.5c0-14.1,11.5-25.6,25.6-25.6c14.1,0,25.6,11.5,25.6,25.6s-11.5,25.6-25.6,25.6
				C386.9,356.1,375.5,344.6,375.5,330.5z"/>
		</g>
	</g>
	<g>
		<g>
			<path class="st0" d="M0,296.4l0,34.1c0,4.7,3.8,8.5,8.5,8.5h34.1c5.1,0,9.1-3.4,8.5-8.5c0-33,26.7-59.7,59.7-59.7
				c32.9,0,59.6,26.6,59.7,59.5c0,0.1,0,0.1,0,0.1c0,4.7,3.8,8.6,8.5,8.6h153.6c5.1,0,9.1-3.4,8.5-8.5c0-33,26.7-59.7,59.7-59.7
				c32.9,0,59.6,26.6,59.7,59.5c0,0.1,0,0.1,0,0.1c0,4.7,3.8,8.6,8.5,8.6h34.1c4.7,0,8.5-3.8,8.5-8.5v-34.1c0-4.7-3.8-8.5-8.5-8.5
				l-1-21.2c-0.6-13.5-7.4-26.1-18.7-33.4c-21.9-14-59.2-21.7-95.7-22.2c-49-59.3-125.4-82.3-227.1-68.2c-0.1,0-0.2,0-0.3,0.1
				c-55.1,9.7-80,38.9-98.1,69.6l-48.1,16.1c-3.5,1.2-5.8,4.4-5.8,8.1v51.2C3.8,287.8,0,291.7,0,296.4z M238.9,161.3
				c0-2.5,2.2-4.5,4.7-4.3c46.4,4.1,84.1,19.5,113.7,46.5c2.9,2.7,1.1,7.5-2.8,7.5H243.2c-2.4,0-4.3-1.9-4.3-4.3V161.3z
				 M136.1,170.3c0-1.8,1.1-3.5,2.8-4.1c7.4-2.7,15.5-4.9,24.6-6.5c19.1-2.6,37.1-3.9,54.2-3.9c2.4,0,4.2,1.9,4.2,4.3v46.6
				c0,2.4-1.9,4.3-4.3,4.3h-76.9c-2.3,0-4.2-1.9-4.3-4.2L136.1,170.3z M88.5,204.1c6.8-9.1,14.5-17.1,23.7-23.9
				c2.8-2.1,6.9-0.2,6.9,3.4l0.2,23.1c0,2.4-1.9,4.3-4.3,4.3H91.9C88.3,211,86.4,207,88.5,204.1z"/>
		</g>
	</g>
	<g>
		<g>
			<path class="st0" d="M68.3,330.5c0,23.5,19.1,42.7,42.7,42.7c23.5,0,42.7-19.1,42.7-42.7c0-23.5-19.1-42.7-42.7-42.7
				S68.3,307,68.3,330.5z M85.3,330.5c0-14.1,11.5-25.6,25.6-25.6s25.6,11.5,25.6,25.6s-11.5,25.6-25.6,25.6S85.3,344.6,85.3,330.5z
				"/>
		</g>
	</g>
</g>
</svg>
