<?xml version="1.0" encoding="utf-8"?>
<!-- Generator: Adobe Illustrator 23.0.1, SVG Export Plug-In . SVG Version: 6.00 Build 0)  -->
<svg version="1.1" id="Layer_1" xmlns="http://www.w3.org/2000/svg" xmlns:xlink="http://www.w3.org/1999/xlink" x="0px" y="0px"
	 viewBox="0 0 512 512" style="enable-background:new 0 0 512 512;" xml:space="preserve">
<style type="text/css">
	.st0{fill:#FFFFFF;}
</style>
<g>
	<title  class="hovered-path active-path" style="">SUV Car</title>
	<circle class="st0" cx="394.7" cy="323.2" r="40"/>
	<circle class="st0" cx="112.2" cy="323.7" r="40"/>
	<path class="st0" d="M284.4,165.3c-10.9-2.9-22.1-4.8-33.4-5.6v57.9l130.8-0.4c-13.5-11.2-37.9-29.3-68.9-42.3
		C303.6,171.2,294.1,167.9,284.4,165.3z"/>
	<polygon class="st0" points="239,159 140,159 140,218 239,217.7 	"/>
	<path class="st0" d="M239,229.7l-217,0.6V251h18.3c3.3,0,6,2.7,6,6c0,3.3-2.7,6-6,6H22v3.7c0,20.6,12.9,39,32.1,46.1
		c4.8-25.4,25.3-44.9,51-48.3c32.8-4.4,62.9,18.7,67.3,51.5H239V229.7z"/>
	<path class="st0" d="M84.2,162.5l-57.4,49.3c-2,1.7-3.5,3.9-4.3,6.5L128,218v-59H93.4C90,159.1,86.8,160.3,84.2,162.5z"/>
	<path class="st0" d="M397.5,229.3L251,229.7V316h84.3c3.9-30,29-51.9,59.4-51.9s55.5,21.9,59.4,51.9H490v-43.5
		c0-6.8-2.1-13.5-6-19.1c-3.9-5.6-9.5-9.8-15.9-12.1C445.4,233.4,421.5,229.3,397.5,229.3z M308.4,247c0,3.3-2.7,6-6,6h-24.7
		c-3.3,0-6-2.7-6-6s2.7-6,6-6h24.7C305.8,241,308.4,243.7,308.4,247z"/>
</g>
</svg>
