<?xml version="1.0" encoding="utf-8"?>
<!-- Generator: Adobe Illustrator 23.0.1, SVG Export Plug-In . SVG Version: 6.00 Build 0)  -->
<svg version="1.1" id="Layer_1" xmlns="http://www.w3.org/2000/svg" xmlns:xlink="http://www.w3.org/1999/xlink" x="0px" y="0px"
	 viewBox="0 0 512 512" style="enable-background:new 0 0 512 512;" xml:space="preserve">
<style type="text/css">
	.st0{fill:#FFFFFF;}
</style>
<g>
	<g>
		<g>
			<path class="st0" d="M354,371.2c0,28.2,23,51.2,51.2,51.2s51.2-23,51.2-51.2s-23-51.2-51.2-51.2C376.9,320,354,343,354,371.2z
				 M371,371.2c0-18.8,15.3-34.1,34.1-34.1c18.8,0,34.1,15.3,34.1,34.1s-15.3,34.1-34.1,34.1C386.3,405.3,371,390,371,371.2z"/>
		</g>
	</g>
	<g>
		<g>
			<path class="st0" d="M63.9,371.2c0,28.2,23,51.2,51.2,51.2s51.2-23,51.2-51.2s-23-51.2-51.2-51.2C86.9,320,63.9,343,63.9,371.2z
				 M80.9,371.2c0-18.8,15.3-34.1,34.1-34.1s34.1,15.3,34.1,34.1s-15.3,34.1-34.1,34.1C96.3,405.3,80.9,390,80.9,371.2z"/>
		</g>
	</g>
	<g>
		<g>
			<path class="st0" d="M0,302.9l0,42.7c0,4.7,3.8,8.5,8.5,8.5h34.1c3.9,0,7.1-2.6,8.2-6.1c9.7-27,35.5-45.1,64.2-45.1
				c28.9,0,54.8,18.3,64.4,45.6c1.2,3.4,4.6,5.6,8.2,5.6h128c4.7,0,8.5-3.8,8.5-8.5V320h25.6c2.1,0,4-0.8,5.7-2.1
				c10.8-8.5,32.1-14.9,49.9-14.9c28.9,0,54.8,18.3,64.4,45.6c1.2,3.4,4.6,5.6,8.2,5.6h25.4c4.7,0,8.5-3.8,8.5-8.5v-93.9
				c0-1.7-0.5-3.3-1.4-4.7l-51.2-76.8c-1.6-2.4-4.3-3.8-7.1-3.8H349.9c-4.7,0-8.5,3.8-8.5,8.5v128h-17.1V123.7
				c0-18.8-15.3-34.1-34.1-34.1H25.6c-4.7,0-8.5,3.8-8.5,8.5v196.3H8.5C3.8,294.4,0,298.2,0,302.9z M392.5,187.7
				c0-2.4,1.9-4.3,4.3-4.3h48.6c1.4,0,2.8,0.7,3.5,1.9l34.1,51.2c1.9,2.8-0.1,6.6-3.5,6.6h-82.7c-2.4,0-4.3-1.9-4.3-4.3
				C392.5,238.9,392.5,187.7,392.5,187.7z"/>
		</g>
	</g>
</g>
</svg>
